<svg width="12" height="13" viewBox="0 0 12 13" fill="none" xmlns="http://www.w3.org/2000/svg">
<path d="M5.82696 5.39274H6.96029V3.69274H8.6603V2.55941H6.96029V0.859406H5.82696V2.55941H4.12696V3.69274H5.82696V5.39274ZM3.56029 10.4927C2.93696 10.4927 2.43263 11.0027 2.43263 11.6261C2.43263 12.2494 2.93696 12.7594 3.56029 12.7594C4.18363 12.7594 4.69363 12.2494 4.69363 11.6261C4.69363 11.0027 4.18363 10.4927 3.56029 10.4927ZM9.22696 10.4927C8.60363 10.4927 8.0993 11.0027 8.0993 11.6261C8.0993 12.2494 8.60363 12.7594 9.22696 12.7594C9.8503 12.7594 10.3603 12.2494 10.3603 11.6261C10.3603 11.0027 9.8503 10.4927 9.22696 10.4927ZM3.65663 8.65107L3.67363 8.58307L4.18363 7.65941H8.4053C8.8303 7.65941 9.2043 7.42707 9.39696 7.07574L11.5843 3.10341L10.5983 2.55941H10.5926L9.9693 3.69274L8.4053 6.52607H4.42729L4.35363 6.37307L3.08429 3.69274L2.54596 2.55941L2.01329 1.42607H0.160294V2.55941H1.29363L3.33363 6.86041L2.56863 8.24874C2.47796 8.40741 2.42696 8.59441 2.42696 8.79274C2.42696 9.41607 2.93696 9.92607 3.56029 9.92607H10.3603V8.79274H3.79829C3.72463 8.79274 3.65663 8.73041 3.65663 8.65107Z" fill="white"/>
</svg>
